<?xml version="1.0" encoding="UTF-8"?>
<svg version="1.1" xmlns="http://www.w3.org/2000/svg" width="121" height="94">
<path d="M0 0 C1.20416817 -0.00855011 1.20416817 -0.00855011 2.43266296 -0.01727295 C4.13144618 -0.02671539 5.83024765 -0.03325393 7.52905273 -0.03710938 C10.11670251 -0.04680004 12.70355271 -0.07782358 15.29101562 -0.109375 C16.94400572 -0.11590701 18.59700147 -0.12115671 20.25 -0.125 C21.01895096 -0.1373468 21.78790192 -0.1496936 22.58015442 -0.16241455 C28.2168209 -0.13926172 32.3966898 0.98425158 36.6875 4.90625 C38.32308118 8.21113567 38.14427067 11.35722921 38.01171875 14.953125 C37.99141602 15.99919922 37.99141602 15.99919922 37.97070312 17.06640625 C37.93551325 18.77898041 37.8817103 20.49115441 37.82421875 22.203125 C44.90823019 18.87699773 51.51793078 15.02735283 58.13671875 10.875 C61.70506317 8.65515783 63.52479814 8.04659251 67.69921875 8.015625 C68.99472656 7.99435547 68.99472656 7.99435547 70.31640625 7.97265625 C72.94834755 8.21453248 74.56402419 8.87328959 76.82421875 10.203125 C76.90332125 13.05081513 76.88276117 14.61529103 75.82421875 17.203125 C73.00953597 19.86495337 69.77253005 21.73597646 66.44921875 23.703125 C65.53833496 24.26918457 64.62745117 24.83524414 63.68896484 25.41845703 C61.08032372 27.03589821 58.45662456 28.62473448 55.82421875 30.203125 C45.93151238 35.70424503 45.93151238 35.70424503 38.82421875 44.203125 C39.14455832 46.20524729 39.47680952 48.20552195 39.82421875 50.203125 C36.91518482 53.32501507 35.17818333 54.87265945 31.0234375 55.88671875 C26.50959702 57.74406215 24.23820683 60.79144451 21.19921875 64.515625 C20.63976563 65.18013672 20.0803125 65.84464844 19.50390625 66.52929688 C17.14683139 69.33944155 14.84305563 72.17899539 12.5859375 75.0703125 C10.56227883 77.52024073 8.67227839 78.81560877 5.82421875 80.203125 C4.83421875 80.203125 3.84421875 80.203125 2.82421875 80.203125 C3.45587094 77.06292383 4.53400902 74.7638994 6.22265625 72.05078125 C6.7021875 71.27412109 7.18171875 70.49746094 7.67578125 69.69726562 C8.17851563 68.89482422 8.68125 68.09238281 9.19921875 67.265625 C10.18627536 65.67322508 11.17325658 64.08077844 12.16015625 62.48828125 C12.62260742 61.74594238 13.08505859 61.00360352 13.56152344 60.23876953 C15.00719128 57.90814724 16.4237023 55.56113739 17.82421875 53.203125 C16.77363281 53.60144531 15.72304688 53.99976563 14.640625 54.41015625 C-4.99735467 61.83378532 -4.99735467 61.83378532 -11.98828125 63.078125 C-16.27255395 63.95428476 -17.65477029 65.60168077 -20.17578125 69.203125 C-22.92578125 70.515625 -22.92578125 70.515625 -25.17578125 71.203125 C-24.86640625 70.460625 -24.55703125 69.718125 -24.23828125 68.953125 C-23.09531711 65.99486487 -22.17578125 63.38377515 -22.17578125 60.203125 C-20.5234375 58.96630859 -20.5234375 58.96630859 -18.23828125 57.6015625 C-17.02011719 56.86679688 -17.02011719 56.86679688 -15.77734375 56.1171875 C-14.48957031 55.35535156 -14.48957031 55.35535156 -13.17578125 54.578125 C-12.31726562 54.0625 -11.45875 53.546875 -10.57421875 53.015625 C-8.44521891 51.7382251 -6.31236929 50.46777803 -4.17578125 49.203125 C-4.58570312 48.73261719 -4.995625 48.26210938 -5.41796875 47.77734375 C-5.95679687 47.15472656 -6.495625 46.53210937 -7.05078125 45.890625 C-7.58445312 45.27574219 -8.118125 44.66085938 -8.66796875 44.02734375 C-14.25401758 37.26909296 -13.3621116 30.05215994 -13.36108398 21.65551758 C-13.36327846 19.64317924 -13.38148826 17.63138278 -13.40039062 15.61914062 C-13.40232422 14.34619141 -13.40425781 13.07324219 -13.40625 11.76171875 C-13.41035889 10.59954834 -13.41446777 9.43737793 -13.41870117 8.23999023 C-13.18216621 5.28294659 -12.88313848 3.60834896 -11.17578125 1.203125 C-7.42652028 -0.04662866 -3.90733194 0.02142603 0 0 Z " fill="#D2DBDF" transform="translate(38.17578125,5.796875)"/>
<path d="M0 0 C1.20416817 -0.00855011 1.20416817 -0.00855011 2.43266296 -0.01727295 C4.13144618 -0.02671539 5.83024765 -0.03325393 7.52905273 -0.03710938 C10.11670251 -0.04680004 12.70355271 -0.07782358 15.29101562 -0.109375 C16.94400572 -0.11590701 18.59700147 -0.12115671 20.25 -0.125 C21.01895096 -0.1373468 21.78790192 -0.1496936 22.58015442 -0.16241455 C28.2168209 -0.13926172 32.3966898 0.98425158 36.6875 4.90625 C38.32308118 8.21113567 38.14427067 11.35722921 38.01171875 14.953125 C37.99141602 15.99919922 37.99141602 15.99919922 37.97070312 17.06640625 C37.93551325 18.77898041 37.8817103 20.49115441 37.82421875 22.203125 C30.76675445 22.34947795 23.93755229 21.87079687 16.92578125 21.03125 C13.70413076 20.90318741 13.70413076 20.90318741 11.41015625 23.1875 C10.88679688 23.85265625 10.3634375 24.5178125 9.82421875 25.203125 C10.54609375 25.66203125 11.26796875 26.1209375 12.01171875 26.59375 C12.93984375 27.20734375 13.86796875 27.8209375 14.82421875 28.453125 C15.75234375 29.05640625 16.68046875 29.6596875 17.63671875 30.28125 C18.35859375 30.91546875 19.08046875 31.5496875 19.82421875 32.203125 C19.82421875 33.523125 19.82421875 34.843125 19.82421875 36.203125 C16.9628012 38.78642721 13.51795258 40.57008076 10.19921875 42.515625 C9.29558594 43.07830078 8.39195313 43.64097656 7.4609375 44.22070312 C0.82683951 48.17694988 0.82683951 48.17694988 -3.6171875 48.29296875 C-6.51760242 47.05752484 -7.69479592 46.02491529 -9.48828125 43.453125 C-9.97941406 42.77765625 -10.47054688 42.1021875 -10.9765625 41.40625 C-14.22362287 35.44096645 -13.36189021 28.24316079 -13.36108398 21.65551758 C-13.36327846 19.64317924 -13.38148826 17.63138278 -13.40039062 15.61914062 C-13.40232422 14.34619141 -13.40425781 13.07324219 -13.40625 11.76171875 C-13.41035889 10.59954834 -13.41446777 9.43737793 -13.41870117 8.23999023 C-13.18216621 5.28294659 -12.88313848 3.60834896 -11.17578125 1.203125 C-7.42652028 -0.04662866 -3.90733194 0.02142603 0 0 Z " fill="#FEF0DA" transform="translate(38.17578125,5.796875)"/>
<path d="M0 0 C0.66 0.33 1.32 0.66 2 1 C1.21753906 1.97582031 0.43507812 2.95164063 -0.37109375 3.95703125 C-1.39345034 5.24201156 -2.41557364 6.52717751 -3.4375 7.8125 C-3.95376953 8.45509766 -4.47003906 9.09769531 -5.00195312 9.75976562 C-5.74155273 10.69272461 -5.74155273 10.69272461 -6.49609375 11.64453125 C-6.95169678 12.21534424 -7.4072998 12.78615723 -7.87670898 13.37426758 C-9.19545314 15.12116822 -9.19545314 15.12116822 -10 18 C-9.61067144 20.14255793 -9.61067144 20.14255793 -9 22 C-14.34265021 26.83382638 -14.34265021 26.83382638 -17.796875 27.70703125 C-22.32723445 29.53574952 -24.58453016 32.58650367 -27.625 36.3125 C-28.18445313 36.97701172 -28.74390625 37.64152344 -29.3203125 38.32617188 C-31.67738736 41.13631655 -33.98116312 43.97587039 -36.23828125 46.8671875 C-38.26193992 49.31711573 -40.15194036 50.61248377 -43 52 C-43.99 52 -44.98 52 -46 52 C-45.37465342 48.94813853 -44.36895024 46.67306477 -42.7421875 44.0234375 C-42.28473145 43.27473389 -41.82727539 42.52603027 -41.35595703 41.75463867 C-40.86724121 40.96935791 -40.37852539 40.18407715 -39.875 39.375 C-39.12839111 38.16710815 -39.12839111 38.16710815 -38.36669922 36.93481445 C-30.38121342 24.09776448 -23.28283592 15.60856593 -10.6875 7.1875 C-9.66076172 6.49462891 -8.63402344 5.80175781 -7.57617188 5.08789062 C-5.05407524 3.38694173 -2.52865395 1.69117852 0 0 Z " fill="#059CC5" transform="translate(87,34)"/>
<path d="M0 0 C1.06307373 0.10997314 2.12614746 0.21994629 3.22143555 0.33325195 C4.95683594 0.49277344 4.95683594 0.49277344 6.72729492 0.65551758 C7.92547852 0.79280273 9.12366211 0.93008789 10.3581543 1.0715332 C11.57567383 1.18948242 12.79319336 1.30743164 14.04760742 1.42895508 C17.05023689 1.72333052 20.04809052 2.04244224 23.0456543 2.3840332 C20.70634981 4.83089191 18.55485354 6.87892251 15.5925293 8.5246582 C15.03404297 8.83951172 14.47555664 9.15436523 13.90014648 9.47875977 C13.20566406 9.86 12.51118164 10.24124023 11.7956543 10.6340332 C9.5681543 11.8715332 7.3406543 13.1090332 5.0456543 14.3840332 C0.7556543 11.4140332 -3.5343457 8.4440332 -7.9543457 5.3840332 C-2.9543457 0.3840332 -2.9543457 0.3840332 0 0 Z " fill="#099DC5" transform="translate(54.954345703125,25.615966796875)"/>
<path d="M0 0 C5.68596323 1.3639492 11.14860264 3.54801866 16.60546875 5.625 C16.60546875 6.285 16.60546875 6.945 16.60546875 7.625 C14.12109375 9.38671875 14.12109375 9.38671875 10.85546875 11.3125 C9.788125 11.95574219 8.72078125 12.59898438 7.62109375 13.26171875 C4.60546875 14.625 4.60546875 14.625 2.54296875 14.5859375 C-0.16522174 13.24276238 -2.31941825 11.4898963 -4.64453125 9.5625 C-5.5365625 8.82902344 -6.42859375 8.09554687 -7.34765625 7.33984375 C-8.023125 6.77394531 -8.69859375 6.20804688 -9.39453125 5.625 C-9.08203125 3.75 -9.08203125 3.75 -8.39453125 1.625 C-5.0892588 -0.57851496 -3.81731424 -0.57295523 0 0 Z " fill="#019AC4" transform="translate(12.39453125,50.375)"/>
<path d="M0 0 C0.99 0.33 1.98 0.66 3 1 C3.6875 3.0625 3.6875 3.0625 4 5 C-1.29230769 9.92307692 -1.29230769 9.92307692 -4.875 10.3125 C-5.926875 10.1578125 -5.926875 10.1578125 -7 10 C-4.75421558 6.59260295 -2.48862878 3.23521742 0 0 Z " fill="#CCD3D9" transform="translate(74,51)"/>
<path d="M0 0 C3.11450382 4.15267176 3.11450382 4.15267176 2.6875 7.3125 C2.460625 7.869375 2.23375 8.42625 2 9 C0.68 9.33 -0.64 9.66 -2 10 C-5.05059524 5.60714286 -5.05059524 5.60714286 -4.8125 2.75 C-3.67433137 0.29855987 -2.65058539 0 0 0 Z " fill="#D5D6DB" transform="translate(97,21)"/>
<path d="M0 0 C0 3.70316138 -0.95462307 4.67261451 -3.1875 7.5625 C-3.77917969 8.34753906 -4.37085938 9.13257812 -4.98046875 9.94140625 C-7.19861597 12.20245767 -9.00909204 13.04435583 -12 14 C-10.87548273 11.0280615 -9.77706209 8.66559313 -8 6 C-7.34 6 -6.68 6 -6 6 C-5.67 5.01 -5.34 4.02 -5 3 C-2.4375 1.3125 -2.4375 1.3125 0 0 Z " fill="#019AC4" transform="translate(25,63)"/>
<path d="M0 0 C1.4540625 0.0309375 1.4540625 0.0309375 2.9375 0.0625 C2.9375 0.7225 2.9375 1.3825 2.9375 2.0625 C-1.0225 4.0425 -1.0225 4.0425 -5.0625 6.0625 C-3.98897059 0.08140756 -3.98897059 0.08140756 0 0 Z " fill="#19A2C8" transform="translate(107.0625,14.9375)"/>
<path d="M0 0 C0 0.99 0 1.98 0 3 C-3.33333333 6 -3.33333333 6 -6 6 C-4.75453595 2.26360784 -3.36595047 1.81243487 0 0 Z M-8 6 C-7.01 6.495 -7.01 6.495 -6 7 C-6.99 7.495 -6.99 7.495 -8 8 C-8 7.34 -8 6.68 -8 6 Z " fill="#1FA4C9" transform="translate(25,63)"/>
<path d="M0 0 C0 0.66 0 1.32 0 2 C0.66 2.33 1.32 2.66 2 3 C-2.29 2.67 -6.58 2.34 -11 2 C-11 1.67 -11 1.34 -11 1 C-7.26513121 0.4254048 -3.78706732 0 0 0 Z " fill="#B9D3D6" transform="translate(68,25)"/>
</svg>
