<svg width="47" height="48" viewBox="0 0 47 48" fill="none" xmlns="http://www.w3.org/2000/svg">
<rect width="47" height="48" rx="13" fill="#F15A2B"/>
<path d="M32.8184 31.9287C32.3682 31.9379 31.926 31.8091 31.5512 31.5596C31.2723 31.3773 30.9462 31.2803 30.613 31.2803C30.2797 31.2803 29.9537 31.3773 29.6747 31.5596C29.2961 31.8007 28.8566 31.9287 28.4077 31.9287C27.9589 31.9287 27.5194 31.8007 27.1408 31.5596C26.8618 31.3772 26.5357 31.28 26.2023 31.28C25.869 31.28 25.5429 31.3772 25.2639 31.5596C24.8853 31.8007 24.4458 31.9287 23.9969 31.9287C23.5481 31.9287 23.1086 31.8007 22.7299 31.5596C22.4512 31.3773 22.1253 31.2801 21.7922 31.2801C21.459 31.2801 21.1331 31.3773 20.8544 31.5596C20.5111 31.7878 20.1105 31.9145 19.6985 31.9255L19.6758 31.2768C19.9801 31.2696 20.2757 31.1733 20.5258 30.9998C20.9044 30.7589 21.3438 30.6308 21.7925 30.6308C22.2412 30.6308 22.6806 30.7589 23.0591 30.9998C23.3381 31.1822 23.6641 31.2793 23.9974 31.2793C24.3307 31.2793 24.6567 31.1822 24.9357 30.9998C25.3143 30.7586 25.754 30.6305 26.203 30.6305C26.6519 30.6305 27.0916 30.7586 27.4703 30.9998C27.7492 31.1822 28.0753 31.2793 28.4085 31.2793C28.7418 31.2793 29.0679 31.1822 29.3468 30.9998C29.7255 30.7589 30.165 30.6309 30.6138 30.6309C31.0626 30.6309 31.5021 30.7589 31.8808 30.9998C32.1604 31.1826 32.4872 31.28 32.8213 31.28C33.1554 31.28 33.4822 31.1826 33.7618 30.9998C34.1362 30.7511 34.5776 30.6225 35.027 30.6314V31.2801C34.6924 31.2709 34.3636 31.3687 34.0884 31.5593C33.7127 31.8092 33.2695 31.9381 32.8184 31.9287Z" fill="white"/>
<path d="M15.1785 31.9287C14.7285 31.938 14.2864 31.8092 13.9117 31.5596C13.6366 31.3689 13.3078 31.2709 12.9731 31.2801V30.6314C13.4233 30.6221 13.8655 30.7509 14.2403 31.0005C14.5153 31.1913 14.844 31.2892 15.1785 31.2801C15.5133 31.2893 15.8421 31.1912 16.1171 31.0002C16.4911 30.7507 16.9326 30.622 17.382 30.6314C17.8205 30.6216 18.2518 30.7444 18.6193 30.9839L18.2921 31.5437C18.0236 31.3631 17.7054 31.2709 17.382 31.2801C17.0487 31.2711 16.7212 31.3688 16.4473 31.559C16.0722 31.8093 15.6294 31.9383 15.1785 31.9287Z" fill="white"/>
<path d="M32.8195 29.6581C32.3691 29.6673 31.9266 29.5386 31.5514 29.2891C31.2722 29.1066 30.9459 29.0094 30.6123 29.0094C30.2788 29.0094 29.9525 29.1066 29.6733 29.2891C29.2947 29.53 28.8552 29.658 28.4064 29.658C27.9577 29.658 27.5182 29.53 27.1396 29.2891C26.8608 29.1067 26.5349 29.0096 26.2017 29.0096C25.8685 29.0096 25.5426 29.1067 25.2637 29.2891C24.8852 29.5301 24.4457 29.6582 23.9969 29.6582C23.5481 29.6582 23.1087 29.5301 22.7301 29.2891C22.4513 29.1067 22.1253 29.0096 21.7922 29.0096C21.459 29.0096 21.1331 29.1067 20.8542 29.2891C20.4796 29.5387 20.0375 29.6675 19.5874 29.6581C19.1373 29.6675 18.6952 29.5387 18.3206 29.2891C18.0457 29.0983 17.7171 29.0004 17.3827 29.0095C17.0483 29.0004 16.7198 29.0984 16.445 29.2891C16.071 29.5384 15.6296 29.6672 15.1802 29.6581C14.73 29.6675 14.2878 29.5387 13.913 29.2891C13.6376 29.0979 13.3083 29 12.9731 29.0095V28.3608C13.4232 28.3515 13.8653 28.4804 14.24 28.7299C14.5151 28.9207 14.8439 29.0186 15.1786 29.0095C15.5129 29.0186 15.8414 28.9206 16.1162 28.7299C16.4902 28.4806 16.9316 28.3518 17.381 28.3608C17.8314 28.3513 18.2739 28.4801 18.6488 28.7299C18.9238 28.9207 19.2525 29.0187 19.5871 29.0095C19.9216 29.0187 20.2504 28.9207 20.5254 28.7299C20.9039 28.4888 21.3434 28.3608 21.7922 28.3608C22.241 28.3608 22.6804 28.4888 23.059 28.7299C23.3379 28.9123 23.6639 29.0094 23.9971 29.0094C24.3303 29.0094 24.6563 28.9123 24.9352 28.7299C25.3137 28.4888 25.7532 28.3608 26.202 28.3608C26.6508 28.3608 27.0903 28.4888 27.4688 28.7299C27.7477 28.9123 28.0737 29.0094 28.4069 29.0094C28.7402 29.0094 29.0662 28.9123 29.345 28.7299C29.724 28.4889 30.1637 28.3609 30.6128 28.3609C31.0619 28.3609 31.5017 28.4889 31.8806 28.7299C32.16 28.9123 32.4864 29.0093 32.82 29.0093C33.1536 29.0093 33.48 28.9123 33.7594 28.7299C34.1345 28.4805 34.5769 28.3517 35.0272 28.3608V29.0095C34.6919 29 34.3623 29.098 34.0867 29.2891C33.7118 29.5384 33.2696 29.6671 32.8195 29.6581Z" fill="white"/>
<path d="M32.8184 27.3881C32.3683 27.3973 31.9261 27.2685 31.5513 27.0191C31.2762 26.8283 30.9473 26.7304 30.6127 26.7395C30.3671 26.731 30.1232 26.7834 29.9028 26.8919L29.6167 26.3081C29.9263 26.1564 30.268 26.0815 30.6127 26.0899C31.0634 26.0807 31.5061 26.2098 31.8811 26.4599C32.1608 26.6427 32.4876 26.7401 32.8217 26.7401C33.1558 26.7401 33.4826 26.6427 33.7622 26.4599C34.1364 26.211 34.5777 26.0822 35.0271 26.0908V26.7395C34.6925 26.7303 34.3637 26.8281 34.0885 27.0187C33.7128 27.2686 33.2696 27.3975 32.8184 27.3881Z" fill="white"/>
<path d="M28.4045 27.3881C27.9551 27.3975 27.5136 27.2688 27.1396 27.0194C26.8607 26.8369 26.5345 26.7397 26.2012 26.7397C25.8679 26.7397 25.5417 26.8369 25.2628 27.0194C24.8842 27.2604 24.4446 27.3884 23.9958 27.3884C23.547 27.3884 23.1074 27.2604 22.7288 27.0194C22.4499 26.837 22.1238 26.7399 21.7906 26.7399C21.4573 26.7399 21.1312 26.837 20.8523 27.0194C20.4777 27.2685 20.0359 27.3972 19.5861 27.3881C19.1361 27.3974 18.6939 27.2686 18.3193 27.019C18.0442 26.8283 17.7154 26.7304 17.3807 26.7395C17.0474 26.7305 16.7199 26.8282 16.446 27.0184C16.0713 27.2684 15.6289 27.3975 15.1786 27.3881C14.7285 27.3974 14.2864 27.2686 13.9117 27.019C13.6366 26.8283 13.3078 26.7304 12.9731 26.7395V26.0908C13.4233 26.0815 13.8655 26.2103 14.2403 26.4599C14.5153 26.6507 14.844 26.7486 15.1786 26.7395C15.5133 26.7487 15.8421 26.6506 16.1171 26.4596C16.4911 26.2101 16.9326 26.0814 17.382 26.0908C17.8321 26.0815 18.2742 26.2103 18.6488 26.4599C18.9238 26.6507 19.2525 26.7486 19.5871 26.7395C19.9217 26.7486 20.2506 26.6506 20.5257 26.4599C20.9043 26.2189 21.3438 26.0908 21.7927 26.0908C22.2415 26.0908 22.681 26.2189 23.0596 26.4599C23.3386 26.6423 23.6646 26.7394 23.9979 26.7394C24.3312 26.7394 24.6572 26.6423 24.9362 26.4599C25.3148 26.2187 25.7545 26.0905 26.2035 26.0905C26.6524 26.0905 27.0921 26.2187 27.4708 26.4599C27.7565 26.6521 28.0953 26.7498 28.4395 26.7391C28.4646 26.7395 28.4896 26.7382 28.5144 26.7352L28.6007 27.3781C28.5356 27.3857 28.4701 27.389 28.4045 27.3881Z" fill="white"/>
<path d="M32.8195 25.1175C32.3691 25.1267 31.9266 24.9979 31.5514 24.7484C31.2722 24.566 30.9459 24.4688 30.6123 24.4688C30.2788 24.4688 29.9525 24.566 29.6733 24.7484C29.2947 24.9894 28.8552 25.1174 28.4064 25.1174C27.9577 25.1174 27.5182 24.9894 27.1396 24.7484C26.8608 24.5661 26.5349 24.469 26.2017 24.469C25.8685 24.469 25.5426 24.5661 25.2637 24.7484C24.8852 24.9895 24.4457 25.1175 23.9969 25.1175C23.5481 25.1175 23.1087 24.9895 22.7301 24.7484C22.4513 24.5661 22.1253 24.469 21.7922 24.469C21.459 24.469 21.1331 24.5661 20.8542 24.7484C20.4796 24.998 20.0375 25.1268 19.5874 25.1175C19.1373 25.1268 18.6952 24.998 18.3206 24.7484C18.0457 24.5577 17.7171 24.4597 17.3827 24.4688C17.0483 24.4598 16.7198 24.5577 16.445 24.7484C16.071 24.9977 15.6296 25.1265 15.1802 25.1175C14.73 25.1268 14.2878 24.998 13.913 24.7484C13.6376 24.5573 13.3083 24.4593 12.9731 24.4688V23.8202C13.4232 23.8109 13.8653 23.9397 14.24 24.1893C14.5151 24.38 14.8439 24.478 15.1786 24.4688C15.5129 24.4779 15.8414 24.38 16.1162 24.1893C16.4902 23.94 16.9316 23.8111 17.381 23.8202C17.8314 23.8106 18.2739 23.9395 18.6488 24.1893C18.9238 24.3801 19.2525 24.478 19.5871 24.4688C19.9216 24.478 20.2504 24.3801 20.5254 24.1893C20.9039 23.9482 21.3434 23.8201 21.7922 23.8201C22.241 23.8201 22.6804 23.9482 23.059 24.1893C23.3379 24.3717 23.6639 24.4688 23.9971 24.4688C24.3303 24.4688 24.6563 24.3717 24.9352 24.1893C25.3137 23.9482 25.7532 23.8201 26.202 23.8201C26.6508 23.8201 27.0903 23.9482 27.4688 24.1893C27.7477 24.3717 28.0737 24.4688 28.4069 24.4688C28.7402 24.4688 29.0662 24.3717 29.345 24.1893C29.724 23.9483 30.1637 23.8203 30.6128 23.8203C31.0619 23.8203 31.5017 23.9483 31.8806 24.1893C32.16 24.3716 32.4864 24.4687 32.82 24.4687C33.1536 24.4687 33.48 24.3716 33.7594 24.1893C34.1345 23.9399 34.5769 23.8111 35.0272 23.8202V24.4688C34.6919 24.4594 34.3623 24.5573 34.0867 24.7484C33.7118 24.9977 33.2696 25.1265 32.8195 25.1175Z" fill="white"/>
<path d="M28.1977 24.8425L27.5857 24.6278C27.7433 24.1749 27.8077 23.6948 27.775 23.2165C27.7423 22.7381 27.6131 22.2713 27.3953 21.8441L25.1675 17.4816C25.1455 17.4385 25.1335 17.3911 25.1322 17.3427C25.1309 17.2943 25.1404 17.2463 25.1601 17.2021C25.1798 17.1579 25.2091 17.1187 25.2459 17.0873C25.2827 17.0559 25.3261 17.0332 25.3728 17.0207L29.8125 15.8369C29.9572 15.7991 30.0811 15.7057 30.1572 15.577C30.2333 15.4483 30.2556 15.2947 30.2191 15.1497C30.1826 15.0046 30.0903 14.8799 29.9622 14.8026C29.8342 14.7253 29.6809 14.7017 29.5355 14.7368L24.1621 16.0212C24.0473 16.0483 23.9402 16.1015 23.8492 16.1767C23.7582 16.2519 23.6857 16.347 23.6374 16.4547C23.5891 16.5624 23.5662 16.6797 23.5705 16.7977C23.5748 16.9157 23.6063 17.031 23.6623 17.1349L25.258 20.0992C25.2985 20.1746 25.3076 20.2628 25.2833 20.3448C25.259 20.4268 25.2033 20.4959 25.1283 20.5371L23.0688 21.6722L22.7559 21.104L24.5338 20.1239L23.0919 17.4424C22.9887 17.2509 22.931 17.0383 22.9231 16.821C22.9152 16.6037 22.9574 16.3875 23.0465 16.1891C23.1355 15.9907 23.269 15.8155 23.4366 15.6769C23.6041 15.5384 23.8014 15.4402 24.0129 15.39L29.3838 14.106C29.6964 14.027 30.0277 14.0755 30.3046 14.2407C30.5816 14.4059 30.7816 14.6744 30.8606 14.9871C30.9396 15.2997 30.8911 15.631 30.7259 15.9079C30.5607 16.1849 30.2922 16.3849 29.9795 16.4639L25.9274 17.5439L27.9733 21.5486C28.2309 22.0541 28.3836 22.6065 28.4221 23.1726C28.4607 23.7387 28.3844 24.3067 28.1977 24.8425Z" fill="white"/>
<path d="M21.6224 21.7339L17.6812 23.9056L17.994 24.4735L21.9353 22.3017L21.6224 21.7339Z" fill="white"/>
<path d="M31.1351 22.6851C30.654 22.6851 30.1837 22.5424 29.7837 22.2751C29.3837 22.0078 29.0719 21.6279 28.8878 21.1835C28.7037 20.739 28.6555 20.2499 28.7494 19.7781C28.8432 19.3062 29.0749 18.8728 29.4151 18.5326C29.7553 18.1925 30.1887 17.9608 30.6605 17.8669C31.1324 17.7731 31.6214 17.8212 32.0659 18.0053C32.5104 18.1895 32.8903 18.5012 33.1576 18.9012C33.4248 19.3012 33.5675 19.7715 33.5675 20.2526C33.5668 20.8975 33.3103 21.5158 32.8543 21.9719C32.3983 22.4279 31.78 22.6844 31.1351 22.6851ZM31.1351 18.4688C30.7823 18.4688 30.4374 18.5735 30.1441 18.7695C29.8507 18.9655 29.6221 19.2441 29.4871 19.57C29.3521 19.8959 29.3167 20.2546 29.3856 20.6006C29.4544 20.9466 29.6243 21.2645 29.8737 21.5139C30.1232 21.7634 30.441 21.9333 30.7871 22.0021C31.1331 22.071 31.4917 22.0356 31.8177 21.9006C32.1436 21.7656 32.4222 21.537 32.6182 21.2436C32.8142 20.9503 32.9188 20.6054 32.9188 20.2526C32.9182 19.7797 32.7301 19.3264 32.3957 18.992C32.0613 18.6576 31.608 18.4694 31.1351 18.4688Z" fill="white"/>
</svg>
